<svg width="110" height="101" viewBox="0 0 110 101" fill="none" xmlns="http://www.w3.org/2000/svg">
<path d="M92.1973 51.9618C94.174 47.675 95.2767 42.9021 95.2767 37.8717C95.2767 19.2672 80.1947 4.18532 61.5902 4.18532C56.2876 4.18532 51.2711 5.41051 46.8084 7.59325L92.1973 51.9618Z" fill="black"/>
<path d="M33.6408 0.2388C22.3936 5.69523 14.6393 17.2243 14.6393 30.5644C14.6393 49.1689 29.7213 64.2509 48.3258 64.2509C61.9381 64.2509 73.6647 56.1769 78.9778 44.5567L33.6408 0.2388Z" fill="black"/>
<path d="M8.61628 77.0206V86.8041H6.82964L2.57325 80.6465H2.50159V86.8041H0.433105V77.0206H2.2484L6.47136 83.1735H6.55735V77.0206H8.61628Z" fill="black"/>
<path d="M10.8252 86.8041V79.4665H12.8602V86.8041H10.8252ZM11.8475 78.5206C11.5449 78.5206 11.2854 78.4203 11.0688 78.2197C10.8554 78.0159 10.7487 77.7722 10.7487 77.4888C10.7487 77.2085 10.8554 76.9681 11.0688 76.7674C11.2854 76.5636 11.5449 76.4617 11.8475 76.4617C12.15 76.4617 12.408 76.5636 12.6214 76.7674C12.8379 76.9681 12.9462 77.2085 12.9462 77.4888C12.9462 77.7722 12.8379 78.0159 12.6214 78.2197C12.408 78.4203 12.15 78.5206 11.8475 78.5206Z" fill="black"/>
<path d="M18.3438 86.9474C17.5922 86.9474 16.9457 86.7882 16.4043 86.4697C15.8661 86.1481 15.4521 85.7022 15.1622 85.1322C14.8756 84.5621 14.7323 83.906 14.7323 83.164C14.7323 82.4124 14.8772 81.7531 15.167 81.1863C15.46 80.6162 15.8756 80.1719 16.4138 79.8535C16.9521 79.5318 17.5922 79.371 18.3342 79.371C18.9744 79.371 19.5349 79.4872 20.0158 79.7197C20.4967 79.9522 20.8773 80.2786 21.1575 80.699C21.4378 81.1194 21.5922 81.613 21.6209 82.1799H19.7005C19.6464 81.8137 19.503 81.5191 19.2706 81.2961C19.0413 81.07 18.7403 80.957 18.3677 80.957C18.0524 80.957 17.7769 81.043 17.5412 81.2149C17.3088 81.3837 17.1272 81.6305 16.9967 81.9554C16.8661 82.2802 16.8008 82.6735 16.8008 83.1353C16.8008 83.6035 16.8645 84.0016 16.9919 84.3296C17.1225 84.6576 17.3056 84.9076 17.5412 85.0796C17.7769 85.2516 18.0524 85.3376 18.3677 85.3376C18.6002 85.3376 18.8088 85.2898 18.9935 85.1943C19.1814 85.0987 19.3358 84.9602 19.4569 84.7786C19.5811 84.5939 19.6623 84.3726 19.7005 84.1146H21.6209C21.589 84.6751 21.4362 85.1688 21.1623 85.5955C20.8916 86.0191 20.5174 86.3503 20.0397 86.5892C19.562 86.828 18.9967 86.9474 18.3438 86.9474Z" fill="black"/>
<path d="M26.7772 86.9474C26.0352 86.9474 25.3935 86.7898 24.8521 86.4745C24.3139 86.156 23.8982 85.7134 23.6052 85.1465C23.3123 84.5764 23.1658 83.9156 23.1658 83.164C23.1658 82.406 23.3123 81.7436 23.6052 81.1767C23.8982 80.6066 24.3139 80.164 24.8521 79.8487C25.3935 79.5302 26.0352 79.371 26.7772 79.371C27.5193 79.371 28.1594 79.5302 28.6976 79.8487C29.239 80.164 29.6562 80.6066 29.9492 81.1767C30.2422 81.7436 30.3887 82.406 30.3887 83.164C30.3887 83.9156 30.2422 84.5764 29.9492 85.1465C29.6562 85.7134 29.239 86.156 28.6976 86.4745C28.1594 86.7898 27.5193 86.9474 26.7772 86.9474ZM26.7868 85.371C27.1244 85.371 27.4062 85.2755 27.6323 85.0844C27.8585 84.8901 28.0288 84.6258 28.1435 84.2914C28.2613 83.957 28.3202 83.5764 28.3202 83.1497C28.3202 82.7229 28.2613 82.3423 28.1435 82.0079C28.0288 81.6735 27.8585 81.4092 27.6323 81.2149C27.4062 81.0207 27.1244 80.9235 26.7868 80.9235C26.446 80.9235 26.1594 81.0207 25.9269 81.2149C25.6976 81.4092 25.524 81.6735 25.4062 82.0079C25.2916 82.3423 25.2342 82.7229 25.2342 83.1497C25.2342 83.5764 25.2916 83.957 25.4062 84.2914C25.524 84.6258 25.6976 84.8901 25.9269 85.0844C26.1594 85.2755 26.446 85.371 26.7868 85.371Z" fill="black"/>
<path d="M34.2851 77.0206V86.8041H32.2501V77.0206H34.2851Z" fill="black"/>
<path d="M38.5458 86.9427C38.0776 86.9427 37.6604 86.8615 37.2942 86.699C36.9279 86.5334 36.6381 86.2898 36.4247 85.9681C36.2145 85.6433 36.1095 85.2388 36.1095 84.7548C36.1095 84.3471 36.1843 84.0048 36.334 83.7277C36.4837 83.4506 36.6875 83.2277 36.9454 83.0589C37.2034 82.8901 37.4964 82.7627 37.8244 82.6767C38.1556 82.5907 38.5028 82.5302 38.8658 82.4952C39.2926 82.4506 39.6365 82.4092 39.8977 82.371C40.1588 82.3296 40.3483 82.2691 40.4662 82.1895C40.584 82.1098 40.6429 81.992 40.6429 81.8359V81.8073C40.6429 81.5047 40.5474 81.2707 40.3563 81.1051C40.1684 80.9395 39.9009 80.8566 39.5537 80.8566C39.1875 80.8566 38.8961 80.9379 38.6795 81.1003C38.463 81.2595 38.3197 81.4602 38.2496 81.7022L36.3674 81.5493C36.463 81.1035 36.6509 80.7181 36.9311 80.3933C37.2114 80.0652 37.5728 79.8136 38.0155 79.6385C38.4614 79.4601 38.9773 79.371 39.5633 79.371C39.9709 79.371 40.3611 79.4187 40.7337 79.5143C41.1095 79.6098 41.4423 79.7579 41.7321 79.9585C42.0251 80.1592 42.256 80.4171 42.4248 80.7324C42.5936 81.0445 42.678 81.4187 42.678 81.8551V86.8041H40.748V85.7866H40.6907C40.5729 86.0159 40.4152 86.2181 40.2178 86.3933C40.0203 86.5653 39.783 86.7006 39.506 86.7994C39.2289 86.8949 38.9088 86.9427 38.5458 86.9427ZM39.1286 85.5382C39.4279 85.5382 39.6923 85.4793 39.9216 85.3615C40.1509 85.2404 40.3308 85.078 40.4614 84.8742C40.592 84.6704 40.6573 84.4395 40.6573 84.1815V83.4028C40.5936 83.4442 40.506 83.4825 40.3945 83.5175C40.2862 83.5493 40.1636 83.5796 40.0267 83.6083C39.8897 83.6337 39.7528 83.6576 39.6158 83.6799C39.4789 83.699 39.3547 83.7165 39.2432 83.7325C39.0044 83.7675 38.7958 83.8232 38.6174 83.8997C38.4391 83.9761 38.3005 84.0796 38.2018 84.2102C38.1031 84.3376 38.0537 84.4968 38.0537 84.6879C38.0537 84.965 38.1541 85.1767 38.3547 85.3232C38.5585 85.4665 38.8165 85.5382 39.1286 85.5382Z" fill="black"/>
<path d="M50.9 81.5589L49.037 81.6735C49.0051 81.5143 48.9366 81.371 48.8315 81.2436C48.7264 81.113 48.5879 81.0095 48.4159 80.9331C48.2471 80.8535 48.0449 80.8137 47.8092 80.8137C47.494 80.8137 47.228 80.8805 47.0115 81.0143C46.7949 81.1449 46.6866 81.32 46.6866 81.5398C46.6866 81.7149 46.7567 81.863 46.8968 81.984C47.0369 82.1051 47.2774 82.2022 47.6182 82.2754L48.9462 82.543C49.6596 82.6895 50.1914 82.9251 50.5417 83.25C50.8921 83.5748 51.0672 84.0016 51.0672 84.5302C51.0672 85.0111 50.9255 85.4331 50.6421 85.7962C50.3618 86.1592 49.9765 86.4427 49.486 86.6465C48.9987 86.8471 48.4366 86.9474 47.7997 86.9474C46.8283 86.9474 46.0545 86.7452 45.478 86.3408C44.9048 85.9331 44.5688 85.379 44.4701 84.6783L46.4717 84.5732C46.5322 84.8694 46.6787 85.0955 46.9111 85.2516C47.1436 85.4044 47.4414 85.4809 47.8045 85.4809C48.1612 85.4809 48.4478 85.4124 48.6643 85.2755C48.8841 85.1353 48.9956 84.9554 48.9987 84.7357C48.9956 84.5509 48.9175 84.3997 48.7647 84.2818C48.6118 84.1608 48.3761 84.0684 48.0577 84.0048L46.7869 83.7516C46.0704 83.6083 45.5369 83.3598 45.1866 83.0063C44.8395 82.6528 44.6659 82.2022 44.6659 81.6544C44.6659 81.1831 44.7933 80.777 45.0481 80.4363C45.306 80.0955 45.6675 79.8328 46.1325 79.648C46.6006 79.4633 47.1484 79.371 47.7758 79.371C48.7026 79.371 49.4319 79.5668 49.9637 79.9585C50.4988 80.3503 50.8109 80.8837 50.9 81.5589Z" fill="black"/>
<path d="M56.5766 86.8041V77.0206H63.0543V78.7261H58.645V81.0573H62.6244V82.7627H58.645V86.8041H56.5766Z" fill="black"/>
<path d="M67.7509 86.9474C66.9961 86.9474 66.3464 86.7946 65.8018 86.4888C65.2604 86.1799 64.8432 85.7436 64.5502 85.1799C64.2572 84.613 64.1107 83.9426 64.1107 83.1688C64.1107 82.414 64.2572 81.7516 64.5502 81.1815C64.8432 80.6114 65.2556 80.1672 65.7875 79.8487C66.3225 79.5302 66.9499 79.371 67.6697 79.371C68.1537 79.371 68.6044 79.449 69.0216 79.605C69.442 79.7579 69.8082 79.9888 70.1203 80.2977C70.4356 80.6066 70.6808 80.9952 70.856 81.4633C71.0311 81.9283 71.1187 82.4729 71.1187 83.0971V83.656H64.9228V82.3949H69.2031C69.2031 82.1019 69.1394 81.8423 69.012 81.6162C68.8846 81.3901 68.7079 81.2133 68.4818 81.0859C68.2588 80.9554 67.9993 80.8901 67.7031 80.8901C67.3942 80.8901 67.1203 80.9617 66.8814 81.1051C66.6458 81.2452 66.4611 81.4347 66.3273 81.6735C66.1935 81.9092 66.1251 82.1719 66.1219 82.4618V83.6608C66.1219 84.0239 66.1888 84.3376 66.3225 84.6019C66.4595 84.8662 66.6521 85.07 66.9005 85.2134C67.149 85.3567 67.4435 85.4283 67.7843 85.4283C68.0104 85.4283 68.2174 85.3965 68.4053 85.3328C68.5932 85.2691 68.7541 85.1736 68.8878 85.0462C69.0216 84.9188 69.1235 84.7627 69.1936 84.578L71.0757 84.7022C70.9802 85.1544 70.7843 85.5494 70.4881 85.8869C70.1952 86.2213 69.8162 86.4825 69.3512 86.6704C68.8894 86.8551 68.356 86.9474 67.7509 86.9474Z" fill="black"/>
<path d="M72.9849 86.8041V79.4665H74.9578V80.7468H75.0342C75.168 80.2914 75.3925 79.9474 75.7078 79.7149C76.0231 79.4792 76.3861 79.3614 76.797 79.3614C76.8989 79.3614 77.0088 79.3678 77.1266 79.3805C77.2444 79.3933 77.3479 79.4108 77.4371 79.4331V81.2388C77.3416 81.2101 77.2094 81.1847 77.0406 81.1624C76.8718 81.1401 76.7174 81.1289 76.5772 81.1289C76.2779 81.1289 76.0104 81.1942 75.7747 81.3248C75.5422 81.4522 75.3575 81.6305 75.2205 81.8598C75.0868 82.0891 75.0199 82.3535 75.0199 82.6528V86.8041H72.9849Z" fill="black"/>
<path d="M79.0274 86.8041V79.4665H81.0003V80.7468H81.0767C81.2105 80.2914 81.435 79.9474 81.7503 79.7149C82.0656 79.4792 82.4287 79.3614 82.8395 79.3614C82.9414 79.3614 83.0513 79.3678 83.1691 79.3805C83.2869 79.3933 83.3904 79.4108 83.4796 79.4331V81.2388C83.3841 81.2101 83.2519 81.1847 83.0831 81.1624C82.9143 81.1401 82.7599 81.1289 82.6197 81.1289C82.3204 81.1289 82.0529 81.1942 81.8172 81.3248C81.5847 81.4522 81.4 81.6305 81.263 81.8598C81.1293 82.0891 81.0624 82.3535 81.0624 82.6528V86.8041H79.0274Z" fill="black"/>
<path d="M88.0723 86.9474C87.3175 86.9474 86.6678 86.7946 86.1232 86.4888C85.5818 86.1799 85.1646 85.7436 84.8716 85.1799C84.5786 84.613 84.4321 83.9426 84.4321 83.1688C84.4321 82.414 84.5786 81.7516 84.8716 81.1815C85.1646 80.6114 85.577 80.1672 86.1089 79.8487C86.6439 79.5302 87.2713 79.371 87.9911 79.371C88.4751 79.371 88.9258 79.449 89.343 79.605C89.7634 79.7579 90.1296 79.9888 90.4417 80.2977C90.757 80.6066 91.0022 80.9952 91.1774 81.4633C91.3526 81.9283 91.4401 82.4729 91.4401 83.0971V83.656H85.2442V82.3949H89.5245C89.5245 82.1019 89.4608 81.8423 89.3334 81.6162C89.206 81.3901 89.0293 81.2133 88.8032 81.0859C88.5802 80.9554 88.3207 80.8901 88.0245 80.8901C87.7156 80.8901 87.4417 80.9617 87.2028 81.1051C86.9672 81.2452 86.7825 81.4347 86.6487 81.6735C86.5149 81.9092 86.4465 82.1719 86.4433 82.4618V83.6608C86.4433 84.0239 86.5102 84.3376 86.6439 84.6019C86.7809 84.8662 86.9735 85.07 87.222 85.2134C87.4704 85.3567 87.765 85.4283 88.1057 85.4283C88.3318 85.4283 88.5388 85.3965 88.7267 85.3328C88.9146 85.2691 89.0755 85.1736 89.2092 85.0462C89.343 84.9188 89.4449 84.7627 89.515 84.578L91.3971 84.7022C91.3016 85.1544 91.1057 85.5494 90.8096 85.8869C90.5166 86.2213 90.1376 86.4825 89.6726 86.6704C89.2108 86.8551 88.6774 86.9474 88.0723 86.9474Z" fill="black"/>
<path d="M93.3063 86.8041V79.4665H95.3413V86.8041H93.3063ZM94.3286 78.5206C94.026 78.5206 93.7665 78.4203 93.5499 78.2197C93.3365 78.0159 93.2298 77.7722 93.2298 77.4888C93.2298 77.2085 93.3365 76.9681 93.5499 76.7674C93.7665 76.5636 94.026 76.4617 94.3286 76.4617C94.6311 76.4617 94.8891 76.5636 95.1024 76.7674C95.319 76.9681 95.4273 77.2085 95.4273 77.4888C95.4273 77.7722 95.319 78.0159 95.1024 78.2197C94.8891 78.4203 94.6311 78.5206 94.3286 78.5206Z" fill="black"/>
<path d="M97.5096 86.8041V79.4665H99.4825V80.7468H99.559C99.6927 80.2914 99.9172 79.9474 100.233 79.7149C100.548 79.4792 100.911 79.3614 101.322 79.3614C101.424 79.3614 101.533 79.3678 101.651 79.3805C101.769 79.3933 101.873 79.4108 101.962 79.4331V81.2388C101.866 81.2101 101.734 81.1847 101.565 81.1624C101.397 81.1401 101.242 81.1289 101.102 81.1289C100.803 81.1289 100.535 81.1942 100.299 81.3248C100.067 81.4522 99.8822 81.6305 99.7453 81.8598C99.6115 82.0891 99.5446 82.3535 99.5446 82.6528V86.8041H97.5096Z" fill="black"/>
<path d="M105.434 86.9427C104.966 86.9427 104.549 86.8615 104.183 86.699C103.816 86.5334 103.527 86.2898 103.313 85.9681C103.103 85.6433 102.998 85.2388 102.998 84.7548C102.998 84.3471 103.073 84.0048 103.222 83.7277C103.372 83.4506 103.576 83.2277 103.834 83.0589C104.092 82.8901 104.385 82.7627 104.713 82.6767C105.044 82.5907 105.391 82.5302 105.754 82.4952C106.181 82.4506 106.525 82.4092 106.786 82.371C107.047 82.3296 107.237 82.2691 107.355 82.1895C107.473 82.1098 107.531 81.992 107.531 81.8359V81.8073C107.531 81.5047 107.436 81.2707 107.245 81.1051C107.057 80.9395 106.789 80.8566 106.442 80.8566C106.076 80.8566 105.785 80.9379 105.568 81.1003C105.351 81.2595 105.208 81.4602 105.138 81.7022L103.256 81.5493C103.351 81.1035 103.539 80.7181 103.82 80.3933C104.1 80.0652 104.461 79.8136 104.904 79.6385C105.35 79.4601 105.866 79.371 106.452 79.371C106.859 79.371 107.25 79.4187 107.622 79.5143C107.998 79.6098 108.331 79.7579 108.621 79.9585C108.914 80.1592 109.144 80.4171 109.313 80.7324C109.482 81.0445 109.566 81.4187 109.566 81.8551V86.8041H107.637V85.7866H107.579C107.461 86.0159 107.304 86.2181 107.106 86.3933C106.909 86.5653 106.672 86.7006 106.394 86.7994C106.117 86.8949 105.797 86.9427 105.434 86.9427ZM106.017 85.5382C106.316 85.5382 106.581 85.4793 106.81 85.3615C107.039 85.2404 107.219 85.078 107.35 84.8742C107.48 84.6704 107.546 84.4395 107.546 84.1815V83.4028C107.482 83.4442 107.394 83.4825 107.283 83.5175C107.175 83.5493 107.052 83.5796 106.915 83.6083C106.778 83.6337 106.641 83.6576 106.504 83.6799C106.367 83.699 106.243 83.7165 106.132 83.7325C105.893 83.7675 105.684 83.8232 105.506 83.8997C105.328 83.9761 105.189 84.0796 105.09 84.2102C104.992 84.3376 104.942 84.4968 104.942 84.6879C104.942 84.965 105.043 85.1767 105.243 85.3232C105.447 85.4665 105.705 85.5382 106.017 85.5382Z" fill="black"/>
<path d="M18.6627 98.6738H16.5315V91.7678H18.7571C19.427 91.7678 20.0003 91.9061 20.4769 92.1826C20.9535 92.4569 21.3188 92.8514 21.5728 93.3662C21.8268 93.8787 21.9538 94.4925 21.9538 95.2073C21.9538 95.9267 21.8257 96.5461 21.5694 97.0654C21.3131 97.5824 20.94 97.9803 20.4499 98.2591C19.9598 98.5356 19.3641 98.6738 18.6627 98.6738ZM17.3678 97.932H18.6087C19.1797 97.932 19.653 97.8218 20.0284 97.6015C20.4038 97.3812 20.6837 97.0676 20.868 96.6607C21.0524 96.2538 21.1445 95.7693 21.1445 95.2073C21.1445 94.6498 21.0535 94.1699 20.8714 93.7675C20.6893 93.3628 20.4173 93.0526 20.0554 92.8368C19.6934 92.6187 19.2427 92.5097 18.7032 92.5097H17.3678V97.932Z" fill="black"/>
<path d="M25.4203 98.7817C24.9213 98.7817 24.4908 98.6716 24.1288 98.4513C23.7691 98.2287 23.4915 97.9185 23.2959 97.5206C23.1026 97.1204 23.0059 96.6551 23.0059 96.1245C23.0059 95.594 23.1026 95.1264 23.2959 94.7218C23.4915 94.3149 23.7635 93.9979 24.112 93.7708C24.4627 93.5415 24.8718 93.4269 25.3394 93.4269C25.6092 93.4269 25.8756 93.4718 26.1386 93.5618C26.4016 93.6517 26.641 93.7978 26.8568 94.0001C27.0726 94.2002 27.2446 94.4655 27.3728 94.7959C27.5009 95.1264 27.565 95.5333 27.565 96.0166V96.3538H23.5724V95.6659H26.7557C26.7557 95.3737 26.6972 95.1129 26.5803 94.8836C26.4657 94.6543 26.3016 94.4733 26.088 94.3407C25.8767 94.2081 25.6271 94.1418 25.3394 94.1418C25.0224 94.1418 24.7482 94.2204 24.5166 94.3778C24.2873 94.5329 24.1108 94.7352 23.9872 94.9848C23.8635 95.2343 23.8017 95.5018 23.8017 95.7873V96.2459C23.8017 96.6371 23.8692 96.9687 24.0041 97.2407C24.1412 97.5105 24.3311 97.7162 24.5739 97.8578C24.8167 97.9972 25.0989 98.0669 25.4203 98.0669C25.6294 98.0669 25.8182 98.0376 25.9868 97.9792C26.1577 97.9185 26.3049 97.8286 26.4286 97.7094C26.5522 97.588 26.6478 97.4374 26.7152 97.2576L27.484 97.4734C27.4031 97.7341 27.2671 97.9634 27.076 98.1613C26.8849 98.3569 26.6489 98.5097 26.3679 98.6199C26.0869 98.7278 25.771 98.7817 25.4203 98.7817ZM24.9347 92.7929L25.7575 91.2283H26.6882L25.6361 92.7929H24.9347Z" fill="black"/>
<path d="M32.8532 93.4943L30.9379 98.6738H30.1286L28.2132 93.4943H29.0765L30.5062 97.6217H30.5602L31.99 93.4943H32.8532Z" fill="black"/>
<path d="M35.8898 98.7817C35.3907 98.7817 34.9602 98.6716 34.5983 98.4513C34.2386 98.2287 33.9609 97.9185 33.7654 97.5206C33.572 97.1204 33.4754 96.6551 33.4754 96.1245C33.4754 95.594 33.572 95.1264 33.7654 94.7218C33.9609 94.3149 34.233 93.9979 34.5814 93.7708C34.9321 93.5415 35.3412 93.4269 35.8088 93.4269C36.0786 93.4269 36.345 93.4718 36.608 93.5618C36.871 93.6517 37.1105 93.7978 37.3263 94.0001C37.5421 94.2002 37.7141 94.4655 37.8422 94.7959C37.9703 95.1264 38.0344 95.5333 38.0344 96.0166V96.3538H34.0419V95.6659H37.2251C37.2251 95.3737 37.1667 95.1129 37.0498 94.8836C36.9351 94.6543 36.771 94.4733 36.5574 94.3407C36.3461 94.2081 36.0966 94.1418 35.8088 94.1418C35.4919 94.1418 35.2176 94.2204 34.986 94.3778C34.7567 94.5329 34.5803 94.7352 34.4566 94.9848C34.333 95.2343 34.2712 95.5018 34.2712 95.7873V96.2459C34.2712 96.6371 34.3386 96.9687 34.4735 97.2407C34.6106 97.5105 34.8006 97.7162 35.0434 97.8578C35.2862 97.9972 35.5683 98.0669 35.8898 98.0669C36.0988 98.0669 36.2877 98.0376 36.4563 97.9792C36.6271 97.9185 36.7744 97.8286 36.898 97.7094C37.0217 97.588 37.1172 97.4374 37.1846 97.2576L37.9535 97.4734C37.8725 97.7341 37.7365 97.9634 37.5454 98.1613C37.3544 98.3569 37.1183 98.5097 36.8373 98.6199C36.5563 98.7278 36.2405 98.7817 35.8898 98.7817Z" fill="black"/>
<path d="M40.0408 91.7678V98.6738H39.245V91.7678H40.0408Z" fill="black"/>
<path d="M43.6025 98.7817C43.1349 98.7817 42.7247 98.6705 42.3717 98.4479C42.021 98.2253 41.7468 97.914 41.5489 97.5138C41.3534 97.1137 41.2556 96.6461 41.2556 96.1111C41.2556 95.5715 41.3534 95.1006 41.5489 94.6982C41.7468 94.2958 42.021 93.9833 42.3717 93.7607C42.7247 93.5382 43.1349 93.4269 43.6025 93.4269C44.0701 93.4269 44.4793 93.5382 44.83 93.7607C45.1829 93.9833 45.4572 94.2958 45.6528 94.6982C45.8506 95.1006 45.9495 95.5715 45.9495 96.1111C45.9495 96.6461 45.8506 97.1137 45.6528 97.5138C45.4572 97.914 45.1829 98.2253 44.83 98.4479C44.4793 98.6705 44.0701 98.7817 43.6025 98.7817ZM43.6025 98.0669C43.9577 98.0669 44.25 97.9758 44.4793 97.7937C44.7086 97.6116 44.8783 97.3722 44.9885 97.0755C45.0986 96.7787 45.1537 96.4572 45.1537 96.1111C45.1537 95.7649 45.0986 95.4423 44.9885 95.1433C44.8783 94.8443 44.7086 94.6026 44.4793 94.4183C44.25 94.2339 43.9577 94.1418 43.6025 94.1418C43.2473 94.1418 42.9551 94.2339 42.7258 94.4183C42.4965 94.6026 42.3268 94.8443 42.2166 95.1433C42.1065 95.4423 42.0514 95.7649 42.0514 96.1111C42.0514 96.4572 42.1065 96.7787 42.2166 97.0755C42.3268 97.3722 42.4965 97.6116 42.7258 97.7937C42.9551 97.9758 43.2473 98.0669 43.6025 98.0669Z" fill="black"/>
<path d="M47.1643 100.616V93.4943H47.9331V94.3171H48.0275C48.086 94.2272 48.1669 94.1125 48.2703 93.9732C48.376 93.8315 48.5266 93.7056 48.7222 93.5955C48.92 93.4831 49.1875 93.4269 49.5247 93.4269C49.9609 93.4269 50.3453 93.5359 50.678 93.754C51.0107 93.972 51.2703 94.2811 51.4569 94.6813C51.6435 95.0814 51.7368 95.5535 51.7368 96.0976C51.7368 96.6461 51.6435 97.1216 51.4569 97.524C51.2703 97.9241 51.0118 98.2343 50.6814 98.4546C50.3509 98.6727 49.9698 98.7817 49.5382 98.7817C49.2055 98.7817 48.9391 98.7267 48.739 98.6165C48.539 98.5041 48.385 98.3771 48.2771 98.2355C48.1692 98.0916 48.086 97.9724 48.0275 97.878H47.9601V100.616H47.1643ZM47.9466 96.0841C47.9466 96.4752 48.0039 96.8203 48.1186 97.1193C48.2332 97.416 48.4007 97.6487 48.621 97.8173C48.8413 97.9837 49.1111 98.0669 49.4303 98.0669C49.763 98.0669 50.0407 97.9792 50.2632 97.8038C50.488 97.6262 50.6566 97.3879 50.769 97.089C50.8837 96.7877 50.941 96.4528 50.941 96.0841C50.941 95.7199 50.8848 95.3917 50.7724 95.0994C50.6622 94.8049 50.4948 94.5723 50.27 94.4014C50.0474 94.2283 49.7675 94.1418 49.4303 94.1418C49.1066 94.1418 48.8346 94.2238 48.6143 94.3879C48.394 94.5498 48.2276 94.7768 48.1152 95.0691C48.0028 95.3591 47.9466 95.6974 47.9466 96.0841Z" fill="black"/>
<path d="M52.9508 100.616V93.4943H53.7196V94.3171H53.814C53.8725 94.2272 53.9534 94.1125 54.0568 93.9732C54.1625 93.8315 54.3131 93.7056 54.5087 93.5955C54.7065 93.4831 54.974 93.4269 55.3112 93.4269C55.7473 93.4269 56.1317 93.5359 56.4645 93.754C56.7972 93.972 57.0568 94.2811 57.2434 94.6813C57.43 95.0814 57.5233 95.5535 57.5233 96.0976C57.5233 96.6461 57.43 97.1216 57.2434 97.524C57.0568 97.9241 56.7983 98.2343 56.4678 98.4546C56.1374 98.6727 55.7563 98.7817 55.3247 98.7817C54.992 98.7817 54.7256 98.7267 54.5255 98.6165C54.3254 98.5041 54.1714 98.3771 54.0635 98.2355C53.9556 98.0916 53.8725 97.9724 53.814 97.878H53.7466V100.616H52.9508ZM53.7331 96.0841C53.7331 96.4752 53.7904 96.8203 53.9051 97.1193C54.0197 97.416 54.1872 97.6487 54.4075 97.8173C54.6278 97.9837 54.8976 98.0669 55.2168 98.0669C55.5495 98.0669 55.8271 97.9792 56.0497 97.8038C56.2745 97.6262 56.4431 97.3879 56.5555 97.089C56.6701 96.7877 56.7275 96.4528 56.7275 96.0841C56.7275 95.7199 56.6713 95.3917 56.5589 95.0994C56.4487 94.8049 56.2812 94.5723 56.0564 94.4014C55.8339 94.2283 55.554 94.1418 55.2168 94.1418C54.8931 94.1418 54.6211 94.2238 54.4007 94.3879C54.1804 94.5498 54.0141 94.7768 53.9017 95.0691C53.7893 95.3591 53.7331 95.6974 53.7331 96.0841Z" fill="black"/>
<path d="M60.9088 98.7817C60.4098 98.7817 59.9793 98.6716 59.6173 98.4513C59.2577 98.2287 58.98 97.9185 58.7844 97.5206C58.5911 97.1204 58.4944 96.6551 58.4944 96.1245C58.4944 95.594 58.5911 95.1264 58.7844 94.7218C58.98 94.3149 59.252 93.9979 59.6005 93.7708C59.9512 93.5415 60.3603 93.4269 60.8279 93.4269C61.0977 93.4269 61.3641 93.4718 61.6271 93.5618C61.8901 93.6517 62.1295 93.7978 62.3453 94.0001C62.5612 94.2002 62.7331 94.4655 62.8613 94.7959C62.9894 95.1264 63.0535 95.5333 63.0535 96.0166V96.3538H59.061V95.6659H62.2442C62.2442 95.3737 62.1857 95.1129 62.0688 94.8836C61.9542 94.6543 61.7901 94.4733 61.5765 94.3407C61.3652 94.2081 61.1157 94.1418 60.8279 94.1418C60.5109 94.1418 60.2367 94.2204 60.0051 94.3778C59.7758 94.5329 59.5994 94.7352 59.4757 94.9848C59.3521 95.2343 59.2903 95.5018 59.2903 95.7873V96.2459C59.2903 96.6371 59.3577 96.9687 59.4926 97.2407C59.6297 97.5105 59.8197 97.7162 60.0625 97.8578C60.3052 97.9972 60.5874 98.0669 60.9088 98.0669C61.1179 98.0669 61.3067 98.0376 61.4754 97.9792C61.6462 97.9185 61.7935 97.8286 61.9171 97.7094C62.0407 97.588 62.1363 97.4374 62.2037 97.2576L62.9725 97.4734C62.8916 97.7341 62.7556 97.9634 62.5645 98.1613C62.3734 98.3569 62.1374 98.5097 61.8564 98.6199C61.5754 98.7278 61.2595 98.7817 60.9088 98.7817Z" fill="black"/>
<path d="M67.5282 96.5562V93.4943H68.324V98.6738H67.5282V97.7971H67.4743C67.3529 98.0601 67.164 98.2838 66.9078 98.4681C66.6515 98.6502 66.3278 98.7413 65.9366 98.7413C65.6129 98.7413 65.3251 98.6705 65.0734 98.5288C64.8216 98.385 64.6237 98.1691 64.4799 97.8814C64.336 97.5914 64.2641 97.2261 64.2641 96.7855V93.4943H65.0599V96.7315C65.0599 97.1092 65.1655 97.4104 65.3768 97.6352C65.5904 97.86 65.8624 97.9724 66.1929 97.9724C66.3907 97.9724 66.5919 97.9219 66.7965 97.8207C67.0033 97.7195 67.1764 97.5644 67.3158 97.3553C67.4574 97.1463 67.5282 96.8799 67.5282 96.5562Z" fill="black"/>
<path d="M69.7816 98.6738V93.4943H70.5504V94.2766H70.6044C70.6988 94.0204 70.8697 93.8124 71.1169 93.6528C71.3642 93.4932 71.643 93.4134 71.9532 93.4134C72.0117 93.4134 72.0847 93.4145 72.1724 93.4168C72.2601 93.419 72.3264 93.4224 72.3714 93.4269V94.2362C72.3444 94.2294 72.2826 94.2193 72.1859 94.2058C72.0915 94.1901 71.9914 94.1822 71.8858 94.1822C71.634 94.1822 71.4092 94.2351 71.2114 94.3407C71.0158 94.4441 70.8607 94.588 70.746 94.7723C70.6336 94.9544 70.5774 95.1624 70.5774 95.3962V98.6738H69.7816Z" fill="black"/>
<path d="M77.1589 98.6738L75.5807 93.4943H76.417L77.5365 97.4599H77.5905L78.6965 93.4943H79.5463L80.6388 97.4464H80.6928L81.8123 93.4943H82.6486L81.0705 98.6738H80.2881L79.1551 94.6948H79.0742L77.9412 98.6738H77.1589Z" fill="black"/>
<path d="M85.6961 98.7817C85.197 98.7817 84.7665 98.6716 84.4046 98.4513C84.0449 98.2287 83.7673 97.9185 83.5717 97.5206C83.3784 97.1204 83.2817 96.6551 83.2817 96.1245C83.2817 95.594 83.3784 95.1264 83.5717 94.7218C83.7673 94.3149 84.0393 93.9979 84.3877 93.7708C84.7384 93.5415 85.1476 93.4269 85.6152 93.4269C85.8849 93.4269 86.1513 93.4718 86.4144 93.5618C86.6774 93.6517 86.9168 93.7978 87.1326 94.0001C87.3484 94.2002 87.5204 94.4655 87.6485 94.7959C87.7767 95.1264 87.8407 95.5333 87.8407 96.0166V96.3538H83.8482V95.6659H87.0314C87.0314 95.3737 86.973 95.1129 86.8561 94.8836C86.7414 94.6543 86.5773 94.4733 86.3638 94.3407C86.1525 94.2081 85.9029 94.1418 85.6152 94.1418C85.2982 94.1418 85.0239 94.2204 84.7924 94.3778C84.5631 94.5329 84.3866 94.7352 84.263 94.9848C84.1393 95.2343 84.0775 95.5018 84.0775 95.7873V96.2459C84.0775 96.6371 84.1449 96.9687 84.2798 97.2407C84.417 97.5105 84.6069 97.7162 84.8497 97.8578C85.0925 97.9972 85.3746 98.0669 85.6961 98.0669C85.9052 98.0669 86.094 98.0376 86.2626 97.9792C86.4335 97.9185 86.5807 97.8286 86.7043 97.7094C86.828 97.588 86.9235 97.4374 86.991 97.2576L87.7598 97.4734C87.6789 97.7341 87.5429 97.9634 87.3518 98.1613C87.1607 98.3569 86.9247 98.5097 86.6437 98.6199C86.3626 98.7278 86.0468 98.7817 85.6961 98.7817Z" fill="black"/>
<path d="M89.1592 98.6738V91.7678H89.955V94.3171H90.0225C90.0809 94.2272 90.1618 94.1125 90.2653 93.9732C90.3709 93.8315 90.5215 93.7056 90.7171 93.5955C90.9149 93.4831 91.1825 93.4269 91.5197 93.4269C91.9558 93.4269 92.3402 93.5359 92.6729 93.754C93.0056 93.972 93.2653 94.2811 93.4519 94.6813C93.6384 95.0814 93.7317 95.5535 93.7317 96.0976C93.7317 96.6461 93.6384 97.1216 93.4519 97.524C93.2653 97.9241 93.0068 98.2343 92.6763 98.4546C92.3458 98.6727 91.9648 98.7817 91.5332 98.7817C91.2004 98.7817 90.934 98.7267 90.734 98.6165C90.5339 98.5041 90.3799 98.3771 90.272 98.2355C90.1641 98.0916 90.0809 97.9724 90.0225 97.878H89.928V98.6738H89.1592ZM89.9415 96.0841C89.9415 96.4752 89.9989 96.8203 90.1135 97.1193C90.2282 97.416 90.3956 97.6487 90.6159 97.8173C90.8363 97.9837 91.106 98.0669 91.4252 98.0669C91.758 98.0669 92.0356 97.9792 92.2581 97.8038C92.483 97.6262 92.6516 97.3879 92.764 97.089C92.8786 96.7877 92.9359 96.4528 92.9359 96.0841C92.9359 95.7199 92.8797 95.3917 92.7673 95.0994C92.6572 94.8049 92.4897 94.5723 92.2649 94.4014C92.0423 94.2283 91.7625 94.1418 91.4252 94.1418C91.1015 94.1418 90.8295 94.2238 90.6092 94.3879C90.3889 94.5498 90.2225 94.7768 90.1101 95.0691C89.9977 95.3591 89.9415 95.6974 89.9415 96.0841Z" fill="black"/>
</svg>
