<svg width="39" height="38" viewBox="0 0 39 38" fill="none" xmlns="http://www.w3.org/2000/svg">
<path d="M11.6787 0.403168C1.44308 0.403168 0.641113 1.2042 0.641113 11.4408V26.8656C0.641113 37.1012 1.44309 37.9032 11.6787 37.9032H27.1035C37.3391 37.9032 38.1411 37.1021 38.1411 26.8656V11.4408C38.1411 1.2042 37.3401 0.403168 27.1035 0.403168H11.6787ZM9.23608 4.15317H29.5461C34.0396 4.15317 34.3911 4.5047 34.3911 8.99814V29.3082C34.3911 33.8016 34.0386 34.1532 29.5461 34.1532H9.23608C4.74265 34.1532 4.39111 33.8007 4.39111 29.3082V8.99814C4.39111 4.5047 4.74265 4.15317 9.23608 4.15317ZM10.4867 6.50058C8.95951 6.50058 7.7218 7.73833 7.7218 9.26364C7.7218 10.789 8.95857 12.0285 10.4867 12.0285C12.0101 12.0285 13.2479 10.7899 13.2479 9.26364C13.2479 7.7402 12.0101 6.50058 10.4867 6.50058ZM24.9539 13.8303C22.6476 13.8303 21.1006 15.0958 20.4678 16.2949H20.4019V14.2112H15.8553V29.4657H20.5923V21.9181C20.5923 19.9277 20.973 18.0014 23.4396 18.0014C25.8715 18.0014 25.9023 20.279 25.9023 22.0481V29.4657H30.6411V21.0977C30.6411 16.9896 29.7548 13.8303 24.9539 13.8303ZM8.11548 14.2112V29.4657H12.8561V14.2112H8.11548Z" fill="black"/>
</svg>
