<svg width="43" height="42" viewBox="0 0 43 42" fill="none" xmlns="http://www.w3.org/2000/svg">
<path d="M21.6089 0.528168C10.2183 0.528168 0.983887 9.76254 0.983887 21.1532C0.983887 32.5438 10.2183 41.7782 21.6089 41.7782C32.9995 41.7782 42.2339 32.5438 42.2339 21.1532C42.2339 9.76254 32.9995 0.528168 21.6089 0.528168ZM21.6089 4.27817C30.9286 4.27817 38.4839 11.8335 38.4839 21.1532C38.4839 28.877 33.2889 35.3744 26.2067 37.3781C26.1197 37.1989 26.06 37.0025 26.0657 36.7794C26.0947 35.646 26.0657 33.0009 26.0657 32.0296C26.0657 30.3628 25.011 29.1805 25.011 29.1805C25.011 29.1805 33.2837 29.2739 33.2837 20.4464C33.2837 17.0404 31.5039 15.2663 31.5039 15.2663C31.5039 15.2663 32.4389 11.6303 31.1798 10.0881C29.7689 9.93529 27.2418 11.4358 26.1627 12.1371C26.1627 12.1371 24.4533 11.4358 21.6089 11.4358C18.7645 11.4358 17.0551 12.1371 17.0551 12.1371C15.976 11.4358 13.4489 9.93623 12.038 10.0881C10.7798 11.6303 11.7139 15.2663 11.7139 15.2663C11.7139 15.2663 9.93408 17.0386 9.93408 20.4445C9.93408 29.272 18.2068 29.1805 18.2068 29.1805C18.2068 29.1805 17.2648 30.2528 17.1704 31.7898C16.6176 31.9847 15.864 32.2146 15.1453 32.2146C13.4109 32.2146 12.0932 30.53 11.6095 29.75C11.1332 28.9803 10.1569 28.3346 9.24561 28.3346C8.64561 28.3346 8.35205 28.636 8.35205 28.9791C8.35205 29.3222 9.19415 29.5611 9.74915 30.1967C10.9191 31.5374 10.8975 34.5528 15.0665 34.5528C15.5595 34.5528 16.4452 34.4393 17.1521 34.3423C17.1482 35.2887 17.1372 36.1964 17.1521 36.7776C17.1576 37.0013 17.0968 37.1984 17.0093 37.3781C9.92788 35.3739 4.73389 28.8763 4.73389 21.1532C4.73389 11.8335 12.2892 4.27817 21.6089 4.27817Z" fill="black"/>
</svg>
